<svg width="64" height="64" viewBox="0 0 64 64" fill="none" xmlns="http://www.w3.org/2000/svg">
<rect width="64" height="64" fill="#042A4D"/>
<path d="M18.2655 22.2616C17.8307 22.3387 17.1764 22.5619 16.6806 22.8095C15.4249 23.4304 14.4293 24.6195 14.031 25.975L13.9172 26.3564L13.905 34.0876C13.8969 41.5752 13.8969 41.8228 13.9701 41.9608C14.0148 42.0379 14.092 42.1271 14.1448 42.1515C14.218 42.1921 14.6243 42.2002 15.746 42.2002C16.575 42.1961 17.3024 42.184 17.3715 42.1677C17.4446 42.1515 17.5259 42.0906 17.5828 42.0054L17.6763 41.8674V34.6152C17.6763 29.4854 17.6885 27.2655 17.721 27.022C17.7779 26.5999 17.8917 26.3686 18.1964 26.0602C18.55 25.6949 18.6231 25.6665 19.2002 25.6665C19.6228 25.6665 19.7082 25.6787 19.8504 25.7558C20.1633 25.9263 20.3503 26.1211 20.5291 26.4863L20.7038 26.8353L20.7241 34.3676C20.7445 41.6442 20.7485 41.9039 20.8217 42.0135C20.8623 42.0744 20.9436 42.1393 21.0045 42.1556C21.0614 42.1718 21.8214 42.184 22.687 42.184H24.2678L24.3653 42.0622C24.4181 41.9932 24.471 41.8836 24.4832 41.8187C24.4954 41.7497 24.4994 38.2433 24.4954 34.0267L24.4832 26.3564L24.3694 25.975C23.9671 24.6073 22.9633 23.4142 21.6873 22.7892C21.2077 22.5578 20.5616 22.3387 20.0983 22.2575C19.6513 22.1804 18.7125 22.1804 18.2655 22.2616Z" fill="white"/>
<path d="M30.7284 22.255C28.7737 22.6284 27.1848 23.9311 26.5793 25.664C26.3192 26.4026 26.3314 25.9725 26.3314 34.2596C26.3314 41.7716 26.3314 41.804 26.4127 41.9664C26.4614 42.0597 26.5427 42.1449 26.6037 42.1693C26.6727 42.1936 27.2905 42.2058 28.2861 42.1977C29.9929 42.1855 29.9279 42.1936 30.062 41.9461C30.127 41.8284 30.1311 41.248 30.1514 34.2921L30.1717 26.7638L30.2855 26.5325C30.4115 26.2809 30.7975 25.8588 31.0129 25.7411C31.208 25.6356 32.0573 25.6356 32.2727 25.7452C32.5653 25.8872 32.7847 26.1226 32.9635 26.4879L33.1383 26.8369L33.1586 34.3489C33.1789 41.4347 33.183 41.869 33.2521 41.9907C33.2927 42.0678 33.3699 42.1368 33.4349 42.153C33.4959 42.1733 34.2518 42.1855 35.1133 42.1855C36.8242 42.1855 36.751 42.1936 36.8892 41.9461C36.9542 41.8284 36.9583 41.2724 36.9583 34.2718C36.9583 28.0706 36.9502 26.6705 36.9014 26.4189C36.5925 24.7144 35.4303 23.3183 33.7438 22.6203C33.0001 22.3118 32.61 22.2307 31.7566 22.2144C31.2486 22.2063 30.9357 22.2185 30.7284 22.255Z" fill="white"/>
<path d="M39.0232 22.5434C38.7794 22.6651 38.7672 22.7341 38.7672 24.1829C38.7672 25.648 38.7753 25.6886 39.0476 25.855L39.1939 25.9483L41.8354 25.9686C44.4606 25.9889 44.4769 25.9889 44.6719 26.0782C45.0824 26.2689 45.3547 26.5692 45.5254 27.0156C45.6107 27.2429 45.6148 27.2997 45.6269 29.7388C45.6351 31.2525 45.6229 32.3361 45.5985 32.4903C45.5132 33.0423 45.1596 33.5293 44.6882 33.7444L44.4362 33.8621L41.7866 33.8823C39.1899 33.9026 39.137 33.9026 39.0232 33.9879C38.9623 34.0325 38.8769 34.134 38.8404 34.2111C38.7713 34.3409 38.7672 34.6088 38.7672 38.0746C38.7672 42.0883 38.7632 42.0071 38.9785 42.1289C39.0517 42.1695 39.4052 42.1816 40.6163 42.1816C41.4656 42.1816 42.2133 42.1695 42.2743 42.1492C42.3353 42.1329 42.4206 42.0599 42.4653 41.9868C42.5425 41.861 42.5466 41.7717 42.5466 39.6005V37.3441L43.7373 37.3198C44.7288 37.2995 44.9889 37.2832 45.3181 37.2142C47.3866 36.7678 48.8983 35.2378 49.321 33.16C49.386 32.8394 49.3941 32.5228 49.3941 29.8849C49.3941 27.2388 49.386 26.9304 49.321 26.6057C49.0487 25.2624 48.2684 24.0855 47.1793 23.3631C46.5738 22.9654 46.078 22.7544 45.3587 22.5921C44.9767 22.5068 44.8751 22.5028 42.0589 22.4906C39.454 22.4784 39.1411 22.4825 39.0232 22.5434Z" fill="white"/>
</svg>
