<svg width="1230" height="630" viewBox="0 0 1230 630" fill="none" xmlns="http://www.w3.org/2000/svg">
<rect width="1230" height="630" fill="#042A4D"/>
<path d="M505.292 233.503C501.727 234.136 496.362 235.966 492.296 237.996C481.999 243.088 473.835 252.838 470.57 263.953L469.636 267.081L469.536 330.477C469.47 391.875 469.47 393.905 470.07 395.037C470.436 395.669 471.069 396.401 471.503 396.601C472.102 396.933 475.435 397 484.632 397C491.43 396.967 497.395 396.867 497.961 396.734C498.561 396.601 499.228 396.101 499.694 395.403L500.461 394.271V334.803C500.461 292.739 500.56 274.536 500.827 272.539C501.294 269.078 502.227 267.181 504.726 264.652C507.625 261.657 508.225 261.424 512.957 261.424C516.422 261.424 517.122 261.524 518.289 262.156C520.854 263.554 522.387 265.151 523.854 268.146L525.286 271.008L525.453 332.773C525.62 392.441 525.653 394.571 526.253 395.469C526.586 395.968 527.252 396.501 527.752 396.634C528.219 396.767 534.45 396.867 541.548 396.867H554.511L555.311 395.869C555.744 395.303 556.177 394.404 556.277 393.872C556.377 393.306 556.41 364.554 556.377 329.977L556.277 267.081L555.344 263.953C552.045 252.738 543.814 242.954 533.351 237.83C529.418 235.933 524.12 234.136 520.321 233.47C516.656 232.838 508.958 232.838 505.292 233.503Z" fill="white"/>
<path d="M607.488 233.45C591.46 236.511 578.43 247.194 573.465 261.403C571.333 267.46 571.432 263.933 571.432 331.887C571.432 393.485 571.432 393.751 572.099 395.083C572.499 395.848 573.165 396.547 573.665 396.747C574.232 396.946 579.297 397.046 587.461 396.979C601.457 396.88 600.924 396.946 602.023 394.916C602.556 393.951 602.59 389.192 602.756 332.153L602.923 270.422L603.856 268.525C604.889 266.462 608.055 263.001 609.821 262.036C611.42 261.171 618.385 261.171 620.151 262.069C622.55 263.234 624.35 265.164 625.816 268.159L627.249 271.021L627.416 332.619C627.582 390.723 627.616 394.284 628.182 395.282C628.515 395.915 629.149 396.48 629.682 396.613C630.182 396.78 636.38 396.88 643.444 396.88C657.473 396.88 656.874 396.946 658.007 394.916C658.54 393.951 658.573 389.392 658.573 331.987C658.573 281.138 658.506 269.656 658.106 267.593C655.574 253.616 646.043 242.169 632.214 236.445C626.116 233.916 622.917 233.25 615.919 233.117C611.754 233.05 609.188 233.15 607.488 233.45Z" fill="white"/>
<path d="M675.506 235.814C673.506 236.812 673.406 237.378 673.406 249.258C673.406 261.272 673.473 261.604 675.706 262.969L676.905 263.734L698.565 263.901C720.092 264.067 720.226 264.067 721.825 264.799C725.191 266.363 727.423 268.826 728.823 272.486C729.523 274.35 729.556 274.816 729.656 294.816C729.723 307.229 729.623 316.114 729.423 317.379C728.723 321.905 725.824 325.898 721.958 327.662L719.892 328.627L698.166 328.793C676.872 328.96 676.439 328.96 675.506 329.659C675.006 330.025 674.306 330.857 674.006 331.489C673.44 332.554 673.406 334.75 673.406 363.17C673.406 396.082 673.373 395.417 675.139 396.415C675.739 396.748 678.638 396.848 688.568 396.848C695.533 396.848 701.664 396.748 702.164 396.581C702.664 396.448 703.364 395.849 703.731 395.25C704.364 394.219 704.397 393.487 704.397 375.683V357.18L714.161 356.98C722.292 356.814 724.424 356.681 727.124 356.115C744.085 352.454 756.481 339.908 759.947 322.87C760.48 320.241 760.547 317.645 760.547 296.014C760.547 274.317 760.48 271.788 759.947 269.125C757.714 258.11 751.316 248.459 742.386 242.536C737.42 239.275 733.355 237.544 727.457 236.213C724.324 235.514 723.491 235.481 700.398 235.381C679.038 235.281 676.472 235.314 675.506 235.814Z" fill="white"/>
</svg>
