<svg width="24" height="25" viewBox="0 0 24 25" fill="none" xmlns="http://www.w3.org/2000/svg">
<g clip-path="url(#clip0_8873_667)">
<path d="M24 12.4165C24 5.78908 18.6274 0.416504 12 0.416504C5.37258 0.416504 0 5.78908 0 12.4165C0 18.406 4.3882 23.3705 10.125 24.2707V15.8853H7.07812V12.4165H10.125V9.77275C10.125 6.76525 11.9166 5.104 14.6576 5.104C15.9701 5.104 17.3438 5.33838 17.3438 5.33838V8.2915H15.8306C14.34 8.2915 13.875 9.21658 13.875 10.1665V12.4165H17.2031L16.6711 15.8853H13.875V24.2707C19.6118 23.3705 24 18.406 24 12.4165Z" fill="#94A3B8"/>
</g>
<defs>
<clipPath id="clip0_8873_667">
<rect width="24" height="24" fill="white" transform="translate(0 0.416504)"/>
</clipPath>
</defs>
</svg>
