<svg width="24" height="25" viewBox="0 0 24 25" fill="none" xmlns="http://www.w3.org/2000/svg">
<g clip-path="url(#clip0_8873_672)">
<path d="M12 2.57744C15.2063 2.57744 15.5859 2.5915 16.8469 2.64775C18.0188 2.69932 18.6516 2.89619 19.0734 3.06025C19.6313 3.27588 20.0344 3.53838 20.4516 3.95557C20.8734 4.37744 21.1313 4.77588 21.3469 5.33369C21.5109 5.75557 21.7078 6.39307 21.7594 7.56025C21.8156 8.82588 21.8297 9.20557 21.8297 12.4071C21.8297 15.6134 21.8156 15.9931 21.7594 17.254C21.7078 18.4259 21.5109 19.0587 21.3469 19.4806C21.1313 20.0384 20.8687 20.4415 20.4516 20.8587C20.0297 21.2806 19.6313 21.5384 19.0734 21.754C18.6516 21.9181 18.0141 22.1149 16.8469 22.1665C15.5813 22.2228 15.2016 22.2368 12 22.2368C8.79375 22.2368 8.41406 22.2228 7.15313 22.1665C5.98125 22.1149 5.34844 21.9181 4.92656 21.754C4.36875 21.5384 3.96563 21.2759 3.54844 20.8587C3.12656 20.4368 2.86875 20.0384 2.65313 19.4806C2.48906 19.0587 2.29219 18.4212 2.24063 17.254C2.18438 15.9884 2.17031 15.6087 2.17031 12.4071C2.17031 9.20088 2.18438 8.82119 2.24063 7.56025C2.29219 6.38838 2.48906 5.75557 2.65313 5.33369C2.86875 4.77588 3.13125 4.37275 3.54844 3.95557C3.97031 3.53369 4.36875 3.27588 4.92656 3.06025C5.34844 2.89619 5.98594 2.69932 7.15313 2.64775C8.41406 2.5915 8.79375 2.57744 12 2.57744ZM12 0.416504C8.74219 0.416504 8.33438 0.430566 7.05469 0.486816C5.77969 0.543066 4.90313 0.749316 4.14375 1.04463C3.35156 1.354 2.68125 1.76182 2.01563 2.43213C1.34531 3.09775 0.9375 3.76807 0.628125 4.55557C0.332812 5.31963 0.126563 6.1915 0.0703125 7.4665C0.0140625 8.75088 0 9.15869 0 12.4165C0 15.6743 0.0140625 16.0821 0.0703125 17.3618C0.126563 18.6368 0.332812 19.5134 0.628125 20.2728C0.9375 21.0649 1.34531 21.7353 2.01563 22.4009C2.68125 23.0665 3.35156 23.479 4.13906 23.7837C4.90313 24.079 5.775 24.2853 7.05 24.3415C8.32969 24.3978 8.7375 24.4118 11.9953 24.4118C15.2531 24.4118 15.6609 24.3978 16.9406 24.3415C18.2156 24.2853 19.0922 24.079 19.8516 23.7837C20.6391 23.479 21.3094 23.0665 21.975 22.4009C22.6406 21.7353 23.0531 21.0649 23.3578 20.2774C23.6531 19.5134 23.8594 18.6415 23.9156 17.3665C23.9719 16.0868 23.9859 15.679 23.9859 12.4212C23.9859 9.16338 23.9719 8.75557 23.9156 7.47588C23.8594 6.20088 23.6531 5.32432 23.3578 4.56494C23.0625 3.76807 22.6547 3.09775 21.9844 2.43213C21.3188 1.7665 20.6484 1.354 19.8609 1.04932C19.0969 0.754004 18.225 0.547754 16.95 0.491504C15.6656 0.430566 15.2578 0.416504 12 0.416504Z" fill="#94A3B8"/>
<path d="M12 6.25244C8.59688 6.25244 5.83594 9.01338 5.83594 12.4165C5.83594 15.8196 8.59688 18.5806 12 18.5806C15.4031 18.5806 18.1641 15.8196 18.1641 12.4165C18.1641 9.01338 15.4031 6.25244 12 6.25244ZM12 16.4149C9.79219 16.4149 8.00156 14.6243 8.00156 12.4165C8.00156 10.2087 9.79219 8.41807 12 8.41807C14.2078 8.41807 15.9984 10.2087 15.9984 12.4165C15.9984 14.6243 14.2078 16.4149 12 16.4149Z" fill="#94A3B8"/>
<path d="M19.8469 6.00889C19.8469 6.80577 19.2 7.44795 18.4078 7.44795C17.6109 7.44795 16.9688 6.80108 16.9688 6.00889C16.9688 5.21201 17.6156 4.56982 18.4078 4.56982C19.2 4.56982 19.8469 5.2167 19.8469 6.00889Z" fill="#94A3B8"/>
</g>
<defs>
<clipPath id="clip0_8873_672">
<rect width="24" height="24" fill="white" transform="translate(0 0.416504)"/>
</clipPath>
</defs>
</svg>
