<svg width="24" height="25" viewBox="0 0 24 25" fill="none" xmlns="http://www.w3.org/2000/svg">
<g clip-path="url(#clip0_8873_664)">
<path d="M22.2234 0.416504H1.77187C0.792187 0.416504 0 1.18994 0 2.14619V22.6821C0 23.6384 0.792187 24.4165 1.77187 24.4165H22.2234C23.2031 24.4165 24 23.6384 24 22.6868V2.14619C24 1.18994 23.2031 0.416504 22.2234 0.416504ZM7.12031 20.8681H3.55781V9.41182H7.12031V20.8681ZM5.33906 7.85088C4.19531 7.85088 3.27188 6.92744 3.27188 5.78838C3.27188 4.64932 4.19531 3.72588 5.33906 3.72588C6.47813 3.72588 7.40156 4.64932 7.40156 5.78838C7.40156 6.92275 6.47813 7.85088 5.33906 7.85088ZM20.4516 20.8681H16.8937V15.2993C16.8937 13.9728 16.8703 12.2618 15.0422 12.2618C13.1906 12.2618 12.9094 13.7103 12.9094 15.2056V20.8681H9.35625V9.41182H12.7687V10.9774H12.8156C13.2891 10.0774 14.4516 9.12588 16.1813 9.12588C19.7859 9.12588 20.4516 11.4978 20.4516 14.5821V20.8681Z" fill="#94A3B8"/>
</g>
<defs>
<clipPath id="clip0_8873_664">
<rect width="24" height="24" fill="white" transform="translate(0 0.416504)"/>
</clipPath>
</defs>
</svg>
