<svg width="24" height="25" viewBox="0 0 24 25" fill="none" xmlns="http://www.w3.org/2000/svg">
<g clip-path="url(#clip0_8873_662)">
<path d="M17.0725 0.416504H13.0278V16.7643C13.0278 18.7122 11.4722 20.3122 9.53626 20.3122C7.60034 20.3122 6.04469 18.7122 6.04469 16.7643C6.04469 14.8513 7.56577 13.286 9.43257 13.2165V9.11217C5.31872 9.1817 2 12.5556 2 16.7643C2 21.0078 5.38786 24.4165 9.57085 24.4165C13.7538 24.4165 17.1416 20.973 17.1416 16.7643V8.3817C18.6627 9.49477 20.5295 10.1556 22.5 10.1904V6.08607C19.4579 5.98172 17.0725 3.47737 17.0725 0.416504Z" fill="#94A3B8"/>
</g>
<defs>
<clipPath id="clip0_8873_662">
<rect width="24" height="24" fill="white" transform="translate(0 0.416504)"/>
</clipPath>
</defs>
</svg>
